<mxfile host="app.diagrams.net" modified="2023-10-16T16:39:32.011Z" agent="Mozilla/5.0 (Windows NT 10.0; Win64; x64) AppleWebKit/537.36 (KHTML, like Gecko) Chrome/117.0.0.0 Safari/537.36" etag="25zgjnOei10jGFouFc_E" version="22.0.4" type="github">
  <diagram id="C5RBs43oDa-KdzZeNtuy" name="Page-1">
    <mxGraphModel dx="2049" dy="2252" grid="1" gridSize="10" guides="1" tooltips="1" connect="1" arrows="1" fold="1" page="1" pageScale="1" pageWidth="827" pageHeight="1169" math="0" shadow="0">
      <root>
        <mxCell id="WIyWlLk6GJQsqaUBKTNV-0" />
        <mxCell id="WIyWlLk6GJQsqaUBKTNV-1" parent="WIyWlLk6GJQsqaUBKTNV-0" />
        <mxCell id="dKsyPkoqbk5MUY7n4Gfu-7" value="" style="rounded=0;whiteSpace=wrap;html=1;" parent="WIyWlLk6GJQsqaUBKTNV-1" vertex="1">
          <mxGeometry y="-240" width="640" height="960" as="geometry" />
        </mxCell>
        <mxCell id="dKsyPkoqbk5MUY7n4Gfu-8" value="Start" style="whiteSpace=wrap;html=1;aspect=fixed;" parent="WIyWlLk6GJQsqaUBKTNV-1" vertex="1">
          <mxGeometry y="-240" width="160" height="160" as="geometry" />
        </mxCell>
        <mxCell id="dKsyPkoqbk5MUY7n4Gfu-9" value="Choose random adjective" style="whiteSpace=wrap;html=1;aspect=fixed;" parent="WIyWlLk6GJQsqaUBKTNV-1" vertex="1">
          <mxGeometry y="-80" width="160" height="160" as="geometry" />
        </mxCell>
        <mxCell id="dKsyPkoqbk5MUY7n4Gfu-10" value="_________" style="whiteSpace=wrap;html=1;aspect=fixed;" parent="WIyWlLk6GJQsqaUBKTNV-1" vertex="1">
          <mxGeometry x="160" y="-240" width="160" height="160" as="geometry" />
        </mxCell>
        <mxCell id="dKsyPkoqbk5MUY7n4Gfu-13" value="Blowing" style="whiteSpace=wrap;html=1;aspect=fixed;" parent="WIyWlLk6GJQsqaUBKTNV-1" vertex="1">
          <mxGeometry x="160" y="-80" width="160" height="160" as="geometry" />
        </mxCell>
        <mxCell id="dKsyPkoqbk5MUY7n4Gfu-14" value="is there a special character?" style="whiteSpace=wrap;html=1;aspect=fixed;" parent="WIyWlLk6GJQsqaUBKTNV-1" vertex="1">
          <mxGeometry y="560" width="160" height="160" as="geometry" />
        </mxCell>
        <mxCell id="dKsyPkoqbk5MUY7n4Gfu-15" value="Yes" style="whiteSpace=wrap;html=1;aspect=fixed;" parent="WIyWlLk6GJQsqaUBKTNV-1" vertex="1">
          <mxGeometry x="160" y="560" width="160" height="160" as="geometry" />
        </mxCell>
        <mxCell id="dKsyPkoqbk5MUY7n4Gfu-16" value="" style="whiteSpace=wrap;html=1;aspect=fixed;" parent="WIyWlLk6GJQsqaUBKTNV-1" vertex="1">
          <mxGeometry y="80" width="160" height="160" as="geometry" />
        </mxCell>
        <mxCell id="dKsyPkoqbk5MUY7n4Gfu-17" value="" style="whiteSpace=wrap;html=1;aspect=fixed;" parent="WIyWlLk6GJQsqaUBKTNV-1" vertex="1">
          <mxGeometry x="160" y="80" width="160" height="160" as="geometry" />
        </mxCell>
        <mxCell id="dKsyPkoqbk5MUY7n4Gfu-18" value="add special character after adjective" style="whiteSpace=wrap;html=1;aspect=fixed;" parent="WIyWlLk6GJQsqaUBKTNV-1" vertex="1">
          <mxGeometry x="320" y="-240" width="160" height="160" as="geometry" />
        </mxCell>
        <mxCell id="dKsyPkoqbk5MUY7n4Gfu-19" value="blowing#bush9" style="whiteSpace=wrap;html=1;aspect=fixed;" parent="WIyWlLk6GJQsqaUBKTNV-1" vertex="1">
          <mxGeometry x="480" y="-240" width="160" height="160" as="geometry" />
        </mxCell>
        <mxCell id="dKsyPkoqbk5MUY7n4Gfu-20" value="Ask what&#39;s your favorite website?" style="whiteSpace=wrap;html=1;aspect=fixed;" parent="WIyWlLk6GJQsqaUBKTNV-1" vertex="1">
          <mxGeometry x="320" y="-80" width="160" height="160" as="geometry" />
        </mxCell>
        <mxCell id="dKsyPkoqbk5MUY7n4Gfu-21" value="" style="whiteSpace=wrap;html=1;aspect=fixed;" parent="WIyWlLk6GJQsqaUBKTNV-1" vertex="1">
          <mxGeometry x="160" y="240" width="160" height="160" as="geometry" />
        </mxCell>
        <mxCell id="dKsyPkoqbk5MUY7n4Gfu-22" value="" style="whiteSpace=wrap;html=1;aspect=fixed;" parent="WIyWlLk6GJQsqaUBKTNV-1" vertex="1">
          <mxGeometry y="240" width="160" height="160" as="geometry" />
        </mxCell>
        <mxCell id="dKsyPkoqbk5MUY7n4Gfu-23" value="twitter" style="whiteSpace=wrap;html=1;aspect=fixed;" parent="WIyWlLk6GJQsqaUBKTNV-1" vertex="1">
          <mxGeometry x="480" y="-80" width="160" height="160" as="geometry" />
        </mxCell>
        <mxCell id="dKsyPkoqbk5MUY7n4Gfu-24" value="make all letters lowercase" style="whiteSpace=wrap;html=1;aspect=fixed;" parent="WIyWlLk6GJQsqaUBKTNV-1" vertex="1">
          <mxGeometry y="80" width="160" height="160" as="geometry" />
        </mxCell>
        <mxCell id="dKsyPkoqbk5MUY7n4Gfu-25" value="blowing" style="whiteSpace=wrap;html=1;aspect=fixed;" parent="WIyWlLk6GJQsqaUBKTNV-1" vertex="1">
          <mxGeometry x="160" y="80" width="160" height="160" as="geometry" />
        </mxCell>
        <mxCell id="dKsyPkoqbk5MUY7n4Gfu-26" value="Add your website after special character" style="whiteSpace=wrap;html=1;aspect=fixed;" parent="WIyWlLk6GJQsqaUBKTNV-1" vertex="1">
          <mxGeometry x="320" y="240" width="160" height="160" as="geometry" />
        </mxCell>
        <mxCell id="dKsyPkoqbk5MUY7n4Gfu-27" value="blowing#twitter9" style="whiteSpace=wrap;html=1;aspect=fixed;" parent="WIyWlLk6GJQsqaUBKTNV-1" vertex="1">
          <mxGeometry x="480" y="240" width="160" height="160" as="geometry" />
        </mxCell>
        <mxCell id="dKsyPkoqbk5MUY7n4Gfu-28" value="use 1 special character" style="whiteSpace=wrap;html=1;aspect=fixed;" parent="WIyWlLk6GJQsqaUBKTNV-1" vertex="1">
          <mxGeometry y="240" width="160" height="160" as="geometry" />
        </mxCell>
        <mxCell id="dKsyPkoqbk5MUY7n4Gfu-29" value="blowing#" style="whiteSpace=wrap;html=1;aspect=fixed;" parent="WIyWlLk6GJQsqaUBKTNV-1" vertex="1">
          <mxGeometry x="160" y="240" width="160" height="160" as="geometry" />
        </mxCell>
        <mxCell id="dKsyPkoqbk5MUY7n4Gfu-30" value="End" style="whiteSpace=wrap;html=1;aspect=fixed;" parent="WIyWlLk6GJQsqaUBKTNV-1" vertex="1">
          <mxGeometry x="320" y="400" width="160" height="160" as="geometry" />
        </mxCell>
        <mxCell id="dKsyPkoqbk5MUY7n4Gfu-31" value="blowingblue9#" style="whiteSpace=wrap;html=1;aspect=fixed;" parent="WIyWlLk6GJQsqaUBKTNV-1" vertex="1">
          <mxGeometry x="480" y="400" width="160" height="160" as="geometry" />
        </mxCell>
        <mxCell id="dKsyPkoqbk5MUY7n4Gfu-32" value="" style="rounded=0;whiteSpace=wrap;html=1;" parent="WIyWlLk6GJQsqaUBKTNV-1" vertex="1">
          <mxGeometry y="-300" width="640" height="60" as="geometry" />
        </mxCell>
        <mxCell id="dKsyPkoqbk5MUY7n4Gfu-33" value="" style="endArrow=none;html=1;rounded=0;entryX=0.25;entryY=0;entryDx=0;entryDy=0;exitX=0;exitY=0;exitDx=0;exitDy=0;" parent="WIyWlLk6GJQsqaUBKTNV-1" source="dKsyPkoqbk5MUY7n4Gfu-10" target="dKsyPkoqbk5MUY7n4Gfu-32" edge="1">
          <mxGeometry width="50" height="50" relative="1" as="geometry">
            <mxPoint x="390" y="-100" as="sourcePoint" />
            <mxPoint x="440" y="-150" as="targetPoint" />
          </mxGeometry>
        </mxCell>
        <mxCell id="dKsyPkoqbk5MUY7n4Gfu-34" value="" style="endArrow=none;html=1;rounded=0;entryX=0.5;entryY=0;entryDx=0;entryDy=0;" parent="WIyWlLk6GJQsqaUBKTNV-1" target="dKsyPkoqbk5MUY7n4Gfu-32" edge="1">
          <mxGeometry width="50" height="50" relative="1" as="geometry">
            <mxPoint x="320" y="-240" as="sourcePoint" />
            <mxPoint x="440" y="-150" as="targetPoint" />
          </mxGeometry>
        </mxCell>
        <mxCell id="dKsyPkoqbk5MUY7n4Gfu-35" value="" style="endArrow=none;html=1;rounded=0;entryX=0.75;entryY=0;entryDx=0;entryDy=0;exitX=1;exitY=0;exitDx=0;exitDy=0;" parent="WIyWlLk6GJQsqaUBKTNV-1" target="dKsyPkoqbk5MUY7n4Gfu-32" edge="1">
          <mxGeometry width="50" height="50" relative="1" as="geometry">
            <mxPoint x="480" y="-240" as="sourcePoint" />
            <mxPoint x="440" y="-150" as="targetPoint" />
          </mxGeometry>
        </mxCell>
        <mxCell id="dKsyPkoqbk5MUY7n4Gfu-36" value="Step" style="text;html=1;strokeColor=none;fillColor=none;align=center;verticalAlign=middle;whiteSpace=wrap;rounded=0;" parent="WIyWlLk6GJQsqaUBKTNV-1" vertex="1">
          <mxGeometry x="50" y="-280" width="60" height="30" as="geometry" />
        </mxCell>
        <mxCell id="dKsyPkoqbk5MUY7n4Gfu-37" value="Result" style="text;html=1;strokeColor=none;fillColor=none;align=center;verticalAlign=middle;whiteSpace=wrap;rounded=0;" parent="WIyWlLk6GJQsqaUBKTNV-1" vertex="1">
          <mxGeometry x="210" y="-285" width="60" height="30" as="geometry" />
        </mxCell>
        <mxCell id="dKsyPkoqbk5MUY7n4Gfu-38" value="Step" style="text;html=1;strokeColor=none;fillColor=none;align=center;verticalAlign=middle;whiteSpace=wrap;rounded=0;" parent="WIyWlLk6GJQsqaUBKTNV-1" vertex="1">
          <mxGeometry x="370" y="-285" width="60" height="30" as="geometry" />
        </mxCell>
        <mxCell id="dKsyPkoqbk5MUY7n4Gfu-39" value="Result" style="text;html=1;strokeColor=none;fillColor=none;align=center;verticalAlign=middle;whiteSpace=wrap;rounded=0;" parent="WIyWlLk6GJQsqaUBKTNV-1" vertex="1">
          <mxGeometry x="530" y="-285" width="60" height="30" as="geometry" />
        </mxCell>
        <mxCell id="vx8kg3kj5vwW9PBZ5JVK-1" value="incorporate 1 number from 1-10" style="whiteSpace=wrap;html=1;aspect=fixed;" vertex="1" parent="WIyWlLk6GJQsqaUBKTNV-1">
          <mxGeometry y="400" width="160" height="160" as="geometry" />
        </mxCell>
        <mxCell id="vx8kg3kj5vwW9PBZ5JVK-2" value="blowingbush#9" style="whiteSpace=wrap;html=1;aspect=fixed;" vertex="1" parent="WIyWlLk6GJQsqaUBKTNV-1">
          <mxGeometry x="160" y="400" width="160" height="160" as="geometry" />
        </mxCell>
        <mxCell id="vx8kg3kj5vwW9PBZ5JVK-3" value="Blowing#9" style="whiteSpace=wrap;html=1;aspect=fixed;" vertex="1" parent="WIyWlLk6GJQsqaUBKTNV-1">
          <mxGeometry x="480" y="-240" width="160" height="160" as="geometry" />
        </mxCell>
        <mxCell id="vx8kg3kj5vwW9PBZ5JVK-4" value="Is this your favorite website?" style="whiteSpace=wrap;html=1;aspect=fixed;" vertex="1" parent="WIyWlLk6GJQsqaUBKTNV-1">
          <mxGeometry x="320" y="80" width="160" height="160" as="geometry" />
        </mxCell>
        <mxCell id="vx8kg3kj5vwW9PBZ5JVK-5" value="Yes" style="whiteSpace=wrap;html=1;aspect=fixed;" vertex="1" parent="WIyWlLk6GJQsqaUBKTNV-1">
          <mxGeometry x="480" y="80" width="160" height="160" as="geometry" />
        </mxCell>
      </root>
    </mxGraphModel>
  </diagram>
</mxfile>
